<svg width="13" height="13" viewBox="0 0 13 13" fill="none" xmlns="http://www.w3.org/2000/svg">
<g id="fluent:ios-arrow-24-filled">
<path id="Vector" d="M1.99718 6.10611C1.94547 6.05724 1.88463 6.01904 1.81815 5.99368C1.75168 5.96832 1.68085 5.9563 1.60973 5.95832C1.53861 5.96033 1.46858 5.97633 1.40364 6.0054C1.33871 6.03448 1.28013 6.07606 1.23126 6.12778C1.18239 6.17949 1.14419 6.24032 1.11883 6.3068C1.09347 6.37328 1.08146 6.4441 1.08347 6.51522C1.08548 6.58634 1.10148 6.65637 1.13056 6.72131C1.15963 6.78625 1.20122 6.84482 1.25293 6.89369L6.12793 11.4979C6.2285 11.5929 6.36165 11.6459 6.50005 11.6459C6.63846 11.6459 6.77161 11.5929 6.87218 11.4979L11.7477 6.89369C11.8006 6.84515 11.8432 6.78658 11.8733 6.72141C11.9033 6.65623 11.9201 6.58574 11.9226 6.51402C11.9252 6.44231 11.9134 6.37081 11.8881 6.30366C11.8628 6.23652 11.8244 6.17508 11.7751 6.1229C11.7258 6.07073 11.6667 6.02886 11.6011 5.99974C11.5355 5.97062 11.4648 5.95482 11.3931 5.95325C11.3213 5.95169 11.25 5.9644 11.1832 5.99064C11.1164 6.01688 11.0555 6.05613 11.004 6.10611L6.50005 10.3593L1.99718 6.10611Z" fill="black"/>
</g>
</svg>
