<svg width="30" height="30" viewBox="0 0 30 30" fill="none" xmlns="http://www.w3.org/2000/svg">
<path d="M0 11.875C0 11.53 0.28 11.25 0.625 11.25H6.875C7.22 11.25 7.5 11.53 7.5 11.875C7.5 12.22 7.22 12.5 6.875 12.5H0.625C0.28 12.5 0 12.22 0 11.875ZM30 13.125V19.375C30 21.245 28.82 22.845 27.165 23.47C27.385 23.95 27.5 24.4675 27.5 25C27.5 27.0675 25.8175 28.75 23.75 28.75C21.6825 28.75 20 27.0675 20 25C20 24.57 20.075 24.1488 20.22 23.75H9.78C9.925 24.1488 10 24.57 10 25C10 27.0675 8.3175 28.75 6.25 28.75C4.1825 28.75 2.5 27.0675 2.5 25C2.5 24.4675 2.615 23.95 2.835 23.47C1.18 22.845 0 21.245 0 19.375V15.625C0 15.28 0.28 15 0.625 15C0.97 15 1.25 15.28 1.25 15.625V19.375C1.25 21.0975 2.65125 22.5 4.375 22.5H20V6.875C20 4.4625 18.0375 2.5 15.625 2.5C15.28 2.5 15 2.22 15 1.875C15 1.53 15.28 1.25 15.625 1.25C18.7262 1.25 21.25 3.77375 21.25 6.875V7.5H24.375C27.4762 7.5 30 10.0238 30 13.125ZM21.25 8.75V15H28.75V13.125C28.75 10.7125 26.7875 8.75 24.375 8.75H21.25ZM8.40375 23.75H4.375C4.28375 23.75 4.1925 23.7463 4.10125 23.7412C3.87 24.1275 3.75 24.5562 3.75 25C3.75 26.3787 4.87125 27.5 6.25 27.5C7.62875 27.5 8.75 26.3787 8.75 25C8.75 24.56 8.63125 24.1338 8.40375 23.75ZM25.8988 23.7412C25.8088 23.7475 25.7175 23.75 25.625 23.75H21.5963C21.3687 24.1338 21.25 24.56 21.25 25C21.25 26.3787 22.3713 27.5 23.75 27.5C25.1287 27.5 26.25 26.3787 26.25 25C26.25 24.5562 26.1287 24.1275 25.8988 23.7412ZM28.75 19.375V16.25H21.25V22.5H25.625C27.3487 22.5 28.75 21.0975 28.75 19.375ZM0.625 2.5H11.875C12.22 2.5 12.5 2.22 12.5 1.875C12.5 1.53 12.22 1.25 11.875 1.25H0.625C0.28 1.25 0 1.53 0 1.875C0 2.22 0.28 2.5 0.625 2.5ZM0.625 7.5H9.375C9.72 7.5 10 7.22 10 6.875C10 6.53 9.72 6.25 9.375 6.25H0.625C0.28 6.25 0 6.53 0 6.875C0 7.22 0.28 7.5 0.625 7.5Z" fill="white"/>
</svg>
