<svg width="30" height="30" viewBox="0 0 30 30" fill="none" xmlns="http://www.w3.org/2000/svg">
<g clip-path="url(#clip0_154_20)">
<path d="M30 15C30 6.875 23.6213 0 15 0C6.72875 0 0 6.72875 0 15C0 23.2712 6.72875 30 15 30C23.9737 30 30 22.9163 30 15ZM28.7113 16.0413L24.7325 14.4325C24.6462 14.3887 24.5825 14.3112 24.5588 14.2163L23.775 11.0837C23.74 10.9425 23.805 10.7875 23.95 10.7037L27.2075 8.675C28.1938 10.57 28.7512 12.7213 28.7512 15C28.7512 15.35 28.7362 15.6975 28.7113 16.0413ZM15 1.25C15.1187 1.25 15.2387 1.25125 15.3562 1.255C14.5525 2.3325 13.3062 4.01 13.075 4.3675C12.5837 5.1275 12.5688 6.085 13.035 6.86375L13.9513 8.39125L13.0775 7.95375C12.2075 7.5175 11.165 7.68875 10.4838 8.375L9.8225 9.03625C9.3975 9.46 9.165 10.025 9.165 10.625C9.165 10.8387 9.19375 11.0487 9.2525 11.25H7.0025C6.86625 11.25 6.7325 11.1937 6.635 11.09L3.35375 7.7C5.7875 3.82875 10.0988 1.25 15 1.25ZM15 28.75C7.41875 28.75 1.25 22.5812 1.25 15C1.25 12.785 1.7775 10.6912 2.71125 8.835L5.73125 11.9537C6.06125 12.3 6.52375 12.5 7.0025 12.5H9.4375C9.8 12.5 10.1413 12.6412 10.3988 12.8975L10.8638 13.3638C11.11 13.61 11.2513 13.95 11.2513 14.2963V15.5C11.2513 15.9862 11.44 16.4412 11.7825 16.7812L13.2687 18.2687C13.58 18.58 13.7513 18.9937 13.7513 19.4325V22.3887C13.7513 23.14 14.3625 23.7512 15.1137 23.7512H15.38C15.91 23.7512 16.395 23.44 16.6163 22.96L19.4175 16.8912C19.7513 16.17 19.495 15.31 18.82 14.89L15.6175 12.8862C15.2138 12.635 14.7488 12.5013 14.2725 12.5013H12.4838C12.0963 12.5013 11.7187 12.345 11.4462 12.0712L10.7062 11.3312C10.5187 11.1437 10.415 10.8925 10.415 10.6263C10.415 10.36 10.5187 10.1087 10.7062 9.92125L11.3688 9.25875C11.6713 8.955 12.135 8.88 12.5188 9.07375L13.6175 9.6225C14.0725 9.8525 14.6225 9.7625 14.9738 9.4025C15.3575 9.01875 15.4312 8.42875 15.155 7.96625L14.1075 6.22125C13.8875 5.85375 13.895 5.40375 14.1262 5.04625C14.365 4.6775 15.9975 2.4875 16.8312 1.3725C20.92 1.91875 24.4462 4.2675 26.5812 7.5925L23.3075 9.63125C22.7 9.98125 22.3937 10.7025 22.5625 11.385L23.3463 14.5162C23.4575 14.9662 23.76 15.3438 24.22 15.57L28.5538 17.3237C27.4463 23.8025 21.7913 28.7488 15.0013 28.7488L15 28.75ZM14.1512 17.3837L12.6637 15.895C12.5587 15.79 12.5 15.65 12.5 15.4988V14.295C12.5 14.1112 12.4787 13.9275 12.44 13.7487C12.455 13.7487 12.4675 13.7487 12.4825 13.7487H14.2712C14.5125 13.7487 14.75 13.8162 14.9563 13.9437L18.1588 15.9475C18.2987 16.035 18.3512 16.2137 18.2825 16.3638L15.38 22.4988H15.1137C15.0525 22.4988 15.0013 22.4475 15.0013 22.3862V19.43C15.0013 18.6575 14.7 17.93 14.1525 17.3825L14.1512 17.3837Z" fill="white"/>
</g>
<defs>
<clipPath id="clip0_154_20">
<rect width="30" height="30" fill="white"/>
</clipPath>
</defs>
</svg>
