<svg width="30" height="30" viewBox="0 0 30 30" fill="none" xmlns="http://www.w3.org/2000/svg">
<g clip-path="url(#clip0_154_22)">
<path d="M10.6248 25.0038L7.08234 17.9175L-0.00390625 14.375L7.08234 10.8325L10.6248 3.74629L14.1673 10.8325L21.2536 14.375L14.1673 17.9175L10.6248 25.0038ZM2.79109 14.375L8.01359 16.9863L10.6248 22.2088L13.2361 16.9863L18.4586 14.375L13.2361 11.7638L10.6248 6.54129L8.01359 11.7638L2.79109 14.375ZM23.1248 29.9863L20.8423 25.4225L16.2786 23.14L20.8423 20.8588L23.1248 16.2938L25.4073 20.8588L29.9711 23.14L25.4073 25.4225L23.1248 29.9863ZM19.0736 23.14L21.7748 24.4913L23.1248 27.1925L24.4748 24.4913L27.1761 23.14L24.4748 21.79L23.1248 19.0888L21.7748 21.79L19.0736 23.14ZM24.3911 11.2688L22.5198 7.52629L18.7786 5.65629L22.5198 3.78504L24.3911 0.0450439L26.2623 3.78754L30.0036 5.65879L26.2623 7.52879L24.3911 11.2713V11.2688ZM21.5736 5.65629L23.4523 6.59504L24.3911 8.47254L25.3298 6.59504L27.2086 5.65629L25.3298 4.71754L24.3911 2.84004L23.4523 4.71754L21.5736 5.65629Z" fill="white"/>
</g>
<defs>
<clipPath id="clip0_154_22">
<rect width="30" height="30" fill="white"/>
</clipPath>
</defs>
</svg>
