<svg width="30" height="30" viewBox="0 0 30 30" fill="none" xmlns="http://www.w3.org/2000/svg">
<g clip-path="url(#clip0_154_16)">
<path d="M25 20H5C2.2425 20 0 22.2425 0 25C0 27.7575 2.2425 30 5 30H25C27.7575 30 30 27.7575 30 25C30 22.2425 27.7575 20 25 20ZM25 28.75H5C2.9325 28.75 1.25 27.0675 1.25 25C1.25 22.9325 2.9325 21.25 5 21.25H25C27.0675 21.25 28.75 22.9325 28.75 25C28.75 27.0675 27.0675 28.75 25 28.75ZM25 3.125C25 1.4025 23.5987 0 21.875 0H8.125C6.40125 0 5 1.4025 5 3.125V17.5H25V3.125ZM13.75 1.25H16.25V6.25H13.75V1.25ZM23.75 16.25H6.25V3.125C6.25 2.09125 7.09125 1.25 8.125 1.25H12.5V7.5H17.5V1.25H21.875C22.9088 1.25 23.75 2.09125 23.75 3.125V16.25ZM6.25 25C6.25 25.69 5.69 26.25 5 26.25C4.31 26.25 3.75 25.69 3.75 25C3.75 24.31 4.31 23.75 5 23.75C5.69 23.75 6.25 24.31 6.25 25ZM26.25 25C26.25 25.69 25.69 26.25 25 26.25C24.31 26.25 23.75 25.69 23.75 25C23.75 24.31 24.31 23.75 25 23.75C25.69 23.75 26.25 24.31 26.25 25ZM12.5 25C12.5 25.69 11.94 26.25 11.25 26.25C10.56 26.25 10 25.69 10 25C10 24.31 10.56 23.75 11.25 23.75C11.94 23.75 12.5 24.31 12.5 25ZM20 25C20 25.69 19.44 26.25 18.75 26.25C18.06 26.25 17.5 25.69 17.5 25C17.5 24.31 18.06 23.75 18.75 23.75C19.44 23.75 20 24.31 20 25Z" fill="white"/>
</g>
<defs>
<clipPath id="clip0_154_16">
<rect width="30" height="30" fill="white"/>
</clipPath>
</defs>
</svg>
